<svg width="1416" height="387" viewBox="0 0 1416 387" fill="none" xmlns="http://www.w3.org/2000/svg">
<g opacity="0.6">
<path d="M-32.9549 226.623C-33.1019 222.807 -32.0758 218.962 -29.9631 215.598L97.1143 13.6287C100.751 7.84686 107.116 4.35156 113.979 4.35156H184.931C191.795 4.35156 198.174 7.86136 201.811 13.6287L204.481 17.8813L205.434 19.3959L218.897 40.7755L235.894 67.7767C237.903 70.9807 238.915 74.607 238.915 78.2484C238.915 81.8744 237.903 85.5154 235.894 88.7194L129.07 258.474L111.53 286.349L111.471 286.451L108.832 290.674C105.194 296.442 98.8152 299.951 91.9515 299.951H20.9847C14.121 299.951 7.74171 296.427 4.10445 290.674L-14.2128 261.561L-29.9631 236.512C-31.8704 233.483 -32.8824 230.075 -32.9549 226.623Z" stroke="#662FAD" stroke-width="1.8" stroke-linejoin="round"/>
<path d="M101.896 279.853C101.118 279.853 99.1677 279.634 97.921 277.668L82.6107 253.332L70.9366 235.2L68.7666 231.763C67.4172 229.622 66.669 227.161 66.6106 224.685C66.522 221.845 67.2702 219.107 68.7666 216.719L125.859 125.987L189.435 24.8711C190.681 22.8904 192.647 22.6719 193.423 22.6719C194.201 22.6719 196.166 22.8904 197.413 24.8711L198.336 26.342L226.612 70.7469C229.487 75.3199 229.487 81.2325 226.612 85.8055L105.915 277.566L105.855 277.668C104.608 279.634 102.673 279.853 101.882 279.853H101.896Z" stroke="#662FAD" stroke-miterlimit="10" stroke-linejoin="round"/>
<path d="M1386.5 283.453C1386.5 226.844 1340.06 180.953 1282.78 180.953C1225.5 180.953 1179.06 226.844 1179.06 283.453C1179.06 340.062 1225.5 385.953 1282.78 385.953C1340.06 385.953 1386.5 340.062 1386.5 283.453Z" stroke="#662FAD" stroke-width="0.8" stroke-miterlimit="10"/>
<path d="M1127.39 1.49495L1057.19 27.9273C1050.63 30.3979 1047.33 37.6825 1049.81 44.1979L1076.43 113.905C1078.92 120.421 1086.26 123.7 1092.82 121.229L1163.01 94.7971C1169.57 92.3261 1172.87 85.0422 1170.39 78.5262L1143.77 8.81885C1141.28 2.30335 1133.95 -0.975649 1127.39 1.49495Z" stroke="#662FAD" stroke-width="0.8" stroke-miterlimit="10"/>
<path d="M1412.16 111.582L1385.58 153.38C1382.77 157.834 1377.86 160.546 1372.55 160.546H1317.78C1312.48 160.56 1307.56 157.834 1304.76 153.38L1278.45 111.582C1275.34 106.629 1275.34 100.362 1278.44 95.4233L1305.02 53.6257C1307.84 49.1576 1312.74 46.4453 1318.03 46.4453H1372.81C1378.12 46.4453 1383.03 49.1576 1385.84 53.5971L1412.14 95.4233C1415.26 100.362 1415.26 106.643 1412.16 111.582Z" stroke="#662FAD" stroke-width="1.8" stroke-miterlimit="10"/>
<path d="M1375.64 61.9619C1376.58 60.4916 1378.13 60.3203 1378.75 60.3203C1379.38 60.3203 1380.92 60.4773 1381.85 61.9619L1383.62 64.7884V64.7313L1404.52 97.9493C1406.65 101.332 1406.65 105.701 1404.52 109.069L1394.7 124.586L1381.58 145.228C1380.65 146.699 1379.21 146.87 1378.63 146.856C1378.04 146.856 1376.59 146.699 1375.66 145.214L1352.99 109.169C1350.86 105.8 1350.85 101.447 1352.93 98.0493L1375.64 61.9619Z" stroke="#662FAD" stroke-miterlimit="10"/>
</g>
</svg>
