<svg width="25" height="24" viewBox="0 0 25 24" fill="none" xmlns="http://www.w3.org/2000/svg">
<path d="M13.8523 13.3681L12.9673 15.7581C12.9432 15.8243 12.9432 15.8969 12.9673 15.9631L14.4903 20.0751L16.2503 19.0741L14.1373 13.3681C14.1265 13.339 14.107 13.3139 14.0816 13.2962C14.0561 13.2785 14.0258 13.269 13.9948 13.269C13.9637 13.269 13.9335 13.2785 13.908 13.2962C13.8825 13.3139 13.8631 13.339 13.8523 13.3681ZM15.6263 9.34911C15.6155 9.32002 15.596 9.29493 15.5706 9.27721C15.5451 9.2595 15.5148 9.25 15.4838 9.25C15.4527 9.25 15.4225 9.2595 15.397 9.27721C15.3715 9.29493 15.3521 9.32002 15.3413 9.34911L14.4563 11.7391C14.4322 11.8053 14.4322 11.8779 14.4563 11.9441L16.9503 18.6761L18.7113 17.6751L15.6263 9.34911Z" fill="url(#paint0_linear_4_115)"/>
<path d="M12.4964 4.115C12.5403 4.11664 12.5834 4.12791 12.6224 4.148L19.3374 7.966C19.3753 7.9876 19.4068 8.01871 19.4289 8.05625C19.451 8.09379 19.4629 8.13645 19.4634 8.18V15.815C19.4634 15.904 19.4154 15.985 19.3374 16.029L12.6224 19.848C12.584 19.8696 12.5405 19.8806 12.4964 19.88C12.4529 19.8785 12.4103 19.8676 12.3714 19.848L5.65644 16.033C5.61847 16.0113 5.58685 15.98 5.56474 15.9423C5.54263 15.9046 5.5308 15.8617 5.53044 15.818V8.182C5.53044 8.093 5.57844 8.012 5.65644 7.967L12.3714 4.149C12.4096 4.1273 12.4526 4.11561 12.4964 4.115ZM12.4964 3C12.2584 3 12.0184 3.06 11.8044 3.183L5.09144 7C4.88165 7.11806 4.70696 7.28969 4.58521 7.49735C4.46346 7.70502 4.39901 7.94128 4.39844 8.182V15.817C4.39844 16.304 4.66244 16.755 5.09144 16.998L11.8054 20.817C12.0169 20.9363 12.2556 20.9991 12.4984 20.9991C12.7413 20.9991 12.98 20.9363 13.1914 20.817L19.9054 16.999C20.1152 16.8809 20.2899 16.7093 20.4117 16.5016C20.5334 16.294 20.5979 16.0577 20.5984 15.817V8.182C20.5979 7.94128 20.5334 7.70502 20.4117 7.49735C20.2899 7.28969 20.1152 7.11806 19.9054 7L13.1894 3.183C12.9782 3.0629 12.7394 2.99983 12.4964 3Z" fill="url(#paint1_linear_4_115)"/>
<path d="M8.05888 18.6828L8.67587 17.0168L9.91988 18.0348L8.75688 19.0808L8.05888 18.6828ZM11.9329 7.63283H10.2309C10.1688 7.63216 10.1081 7.65075 10.0571 7.68603C10.006 7.72131 9.96718 7.77155 9.94588 7.82983L6.29688 17.6818L8.05888 18.6828L12.0759 7.83383C12.0839 7.81108 12.0864 7.78672 12.083 7.76283C12.0796 7.73893 12.0705 7.71621 12.0565 7.69658C12.0424 7.67695 12.0239 7.66099 12.0024 7.65007C11.9808 7.63915 11.957 7.63258 11.9329 7.63283Z" fill="url(#paint2_linear_4_115)"/>
<path d="M14.9118 7.63282H13.2088C13.1469 7.63236 13.0864 7.65104 13.0356 7.68631C12.9847 7.72158 12.9461 7.7717 12.9248 7.82982L8.75781 19.0798L10.5188 20.0798L15.0538 7.83382C15.0618 7.81115 15.0643 7.78688 15.0609 7.76307C15.0576 7.73925 15.0486 7.71659 15.0347 7.69698C15.0208 7.67737 15.0023 7.6614 14.981 7.65041C14.9596 7.63942 14.9359 7.63273 14.9118 7.63282Z" fill="url(#paint3_linear_4_115)"/>
<defs>
<linearGradient id="paint0_linear_4_115" x1="12.9492" y1="14.6626" x2="18.7113" y2="14.6626" gradientUnits="userSpaceOnUse">
<stop stop-color="white"/>
<stop offset="1" stop-color="#999999"/>
</linearGradient>
<linearGradient id="paint1_linear_4_115" x1="4.39844" y1="11.9995" x2="20.5984" y2="11.9995" gradientUnits="userSpaceOnUse">
<stop stop-color="white"/>
<stop offset="1" stop-color="#999999"/>
</linearGradient>
<linearGradient id="paint2_linear_4_115" x1="6.29688" y1="13.3568" x2="12.0845" y2="13.3568" gradientUnits="userSpaceOnUse">
<stop stop-color="white"/>
<stop offset="1" stop-color="#999999"/>
</linearGradient>
<linearGradient id="paint3_linear_4_115" x1="8.75781" y1="13.8563" x2="15.0624" y2="13.8563" gradientUnits="userSpaceOnUse">
<stop stop-color="white"/>
<stop offset="1" stop-color="#999999"/>
</linearGradient>
</defs>
</svg>
