<svg width="25" height="24" viewBox="0 0 25 24" fill="none" xmlns="http://www.w3.org/2000/svg">
<path d="M0.8597 9.16796C1.3877 7.05596 2.3917 5.23597 3.8717 3.70797C5.3517 2.17997 7.1157 1.11997 9.1637 0.527965C11.2117 -0.0640348 13.2917 -0.0960348 15.4037 0.431965C17.5157 0.959965 19.3357 1.96397 20.8637 3.44397C22.3917 4.92397 23.4517 6.68796 24.0437 8.73596C24.6357 10.784 24.6677 12.864 24.1397 14.976C23.6117 17.088 22.6077 18.908 21.1277 20.436C19.6477 21.964 17.8837 23.024 15.8357 23.616C13.7877 24.208 11.7077 24.24 9.5957 23.712C7.4837 23.184 5.6637 22.18 4.1357 20.7C2.6077 19.22 1.5477 17.456 0.9557 15.408C0.3637 13.36 0.3317 11.28 0.8597 9.16796ZM6.3317 15.672L8.0597 16.104C8.1717 16.12 8.3317 16.16 8.5397 16.224C8.7477 16.288 8.8997 16.328 8.9957 16.344L8.4437 18.528L9.7637 18.864L10.2917 16.704C10.3877 16.736 10.5557 16.78 10.7957 16.836C11.0357 16.892 11.2197 16.936 11.3477 16.968L10.8197 19.128L12.1397 19.44L12.6677 17.256C13.4357 17.384 14.1197 17.444 14.7197 17.436C15.3197 17.428 15.8477 17.264 16.3037 16.944C16.7597 16.624 17.0997 16.136 17.3237 15.48C17.8357 14.04 17.4277 12.976 16.0997 12.288C17.0597 12.08 17.6197 11.44 17.7797 10.368C17.9877 8.99197 17.1077 7.98396 15.1397 7.34396L15.6917 5.15997L14.3717 4.84797L13.8437 6.95996C13.7157 6.92796 13.5317 6.88397 13.2917 6.82796C13.0517 6.77197 12.8837 6.72797 12.7877 6.69597L13.3157 4.58397L11.9957 4.24797L11.4677 6.40796C11.2277 6.37596 10.9477 6.31196 10.6277 6.21597L8.8037 5.75996L8.4677 7.17596L9.4037 7.39196C9.8517 7.50396 10.0597 7.75996 10.0277 8.15997L9.4037 10.632C9.4357 10.632 9.4837 10.648 9.5477 10.68C9.5317 10.664 9.5077 10.656 9.4757 10.656C9.4437 10.656 9.4197 10.648 9.4037 10.632L8.5397 14.088C8.4597 14.376 8.2597 14.48 7.9397 14.4L6.9797 14.16L6.3317 15.672ZM10.7237 15.12L11.4437 12.216C11.4597 12.216 11.6157 12.248 11.9117 12.312C12.2077 12.376 12.4317 12.432 12.5837 12.48C12.7357 12.528 12.9597 12.6 13.2557 12.696C13.5517 12.792 13.7797 12.896 13.9397 13.008C14.0997 13.12 14.2677 13.252 14.4437 13.404C14.6197 13.556 14.7357 13.732 14.7917 13.932C14.8477 14.132 14.8437 14.352 14.7797 14.592C14.7317 14.768 14.6597 14.92 14.5637 15.048C14.4677 15.176 14.3477 15.272 14.2037 15.336C14.0597 15.4 13.9117 15.456 13.7597 15.504C13.6077 15.552 13.4237 15.572 13.2077 15.564C12.9917 15.556 12.8037 15.544 12.6437 15.528C12.4837 15.512 12.2917 15.48 12.0677 15.432C11.8437 15.384 11.6717 15.348 11.5517 15.324C11.4317 15.3 11.2757 15.264 11.0837 15.216C10.8917 15.168 10.7717 15.136 10.7237 15.12ZM11.7797 10.896L12.4277 8.25597C12.4757 8.27197 12.5757 8.29597 12.7277 8.32796C12.8797 8.35997 13.0117 8.38796 13.1237 8.41196C13.2357 8.43596 13.3797 8.47597 13.5557 8.53197C13.7317 8.58797 13.8837 8.63997 14.0117 8.68796C14.1397 8.73596 14.2837 8.80396 14.4437 8.89196C14.6037 8.97997 14.7237 9.06797 14.8037 9.15596C14.8837 9.24397 14.9757 9.35196 15.0797 9.47997C15.1837 9.60797 15.2317 9.73997 15.2237 9.87597C15.2157 10.012 15.2037 10.168 15.1877 10.344C15.1397 10.552 15.0557 10.724 14.9357 10.86C14.8157 10.996 14.6637 11.088 14.4797 11.136C14.2957 11.184 14.1157 11.22 13.9397 11.244C13.7637 11.268 13.5517 11.26 13.3037 11.22C13.0557 11.18 12.8637 11.148 12.7277 11.124C12.5917 11.1 12.4077 11.056 12.1757 10.992C11.9437 10.928 11.8117 10.896 11.7797 10.896Z" fill="url(#paint0_linear_4_129)"/>
<defs>
<linearGradient id="paint0_linear_4_129" x1="0.486328" y1="12.072" x2="24.5131" y2="12.072" gradientUnits="userSpaceOnUse">
<stop stop-color="white"/>
<stop offset="1" stop-color="#999999"/>
</linearGradient>
</defs>
</svg>
