<svg width="25" height="24" viewBox="0 0 25 24" fill="none" xmlns="http://www.w3.org/2000/svg">
<path d="M13.428 6.082L13.889 3.107C13.4295 3.0355 12.9651 2.99973 12.5 3H12.495V9.075H12.5C12.759 9.075 13.006 9.109 13.254 9.171L14.041 6.211C13.8391 6.15736 13.6344 6.1143 13.428 6.082ZM11.038 9.469L9.518 6.864C9.34202 6.96789 9.17147 7.08071 9.007 7.202L7.2 4.727C7.57871 4.4465 7.98009 4.19797 8.4 3.984L9.778 6.667C10.06 6.527 10.341 6.403 10.639 6.307L9.704 3.44C10.1524 3.29523 10.6115 3.18589 11.077 3.113L11.561 6.14C11.3558 6.17068 11.1528 6.2141 10.953 6.27L11.741 9.177C11.4937 9.24087 11.2566 9.33952 11.037 9.47M4.472 7.922L7.206 9.312C7.066 9.592 6.941 9.874 6.846 10.172L3.932 9.227C4.078 8.77767 4.258 8.34267 4.472 7.922ZM17.635 9.019L15.03 10.537C15.16 10.757 15.255 10.987 15.323 11.235L18.231 10.448C18.2877 10.65 18.331 10.8523 18.361 11.055L21.386 10.577C21.3121 10.1097 21.2014 9.64892 21.055 9.199L18.185 10.138C18.0918 9.8398 17.9734 9.55009 17.831 9.272L20.509 7.894C20.295 7.47605 20.0485 7.0755 19.772 6.696L17.298 8.5C17.422 8.669 17.534 8.838 17.636 9.018M15.268 3.432C15.718 3.578 16.156 3.758 16.573 3.972L15.183 6.7C14.9075 6.56017 14.6217 6.44182 14.328 6.346L15.268 3.432ZM15.487 6.807L13.957 9.462C14.182 9.592 14.384 9.743 14.564 9.929L18.851 5.626C18.5188 5.29284 18.1611 4.98623 17.781 4.709L16.01 7.151C15.8428 7.02792 15.6682 6.91537 15.487 6.814V6.807ZM9.963 10.542L7.308 9.012C7.415 8.832 7.533 8.658 7.651 8.489L5.21 6.718C5.48727 6.33826 5.79388 5.98083 6.127 5.649L10.43 9.936C10.2487 10.116 10.093 10.3183 9.963 10.543M6.712 10.459L9.671 11.246C9.60716 11.4922 9.5749 11.7456 9.575 12H3.5C3.5 11.533 3.534 11.06 3.612 10.605L6.582 11.066C6.616 10.864 6.662 10.656 6.712 10.459ZM17.793 14.689L20.527 16.079C20.741 15.656 20.92 15.217 21.067 14.773L18.153 13.828C18.057 14.121 17.933 14.413 17.793 14.688M13.968 14.53L15.476 17.135C15.6567 17.0337 15.829 16.921 15.993 16.797L17.799 19.272C17.4209 19.5524 17.0202 19.8009 16.601 20.015L15.222 17.332C14.942 17.472 14.66 17.596 14.356 17.692L15.296 20.56C14.846 20.7 14.384 20.813 13.917 20.886L13.439 17.86C13.6417 17.8313 13.8443 17.788 14.047 17.73L13.259 14.823C13.5048 14.7556 13.7411 14.6571 13.962 14.53H13.968ZM7.364 14.98L9.969 13.462C9.83904 13.2442 9.7404 13.0093 9.676 12.764L6.768 13.551C6.71214 13.3516 6.66872 13.1488 6.638 12.944L3.612 13.422C3.68667 13.89 3.79733 14.3493 3.944 14.8L6.814 13.86C6.90933 14.158 7.027 14.447 7.167 14.727L4.49 16.106C4.704 16.522 4.951 16.927 5.227 17.304L7.702 15.5C7.57875 15.3345 7.46587 15.1615 7.364 14.982M9.732 20.568C9.28353 20.4225 8.84718 20.2419 8.427 20.028L9.811 17.3C10.0923 17.44 10.379 17.558 10.671 17.654L9.732 20.568ZM9.513 17.193L11.043 14.538C10.8218 14.4105 10.6179 14.2552 10.436 14.076L6.149 18.38C6.481 18.706 6.841 19.015 7.219 19.29L8.99 16.855C9.15867 16.9737 9.333 17.0863 9.513 17.193ZM15.037 13.458L17.687 14.988C17.5855 15.1712 17.4726 15.3479 17.349 15.517L19.784 17.283C19.5089 17.6642 19.2043 18.0233 18.873 18.357L14.57 14.065C14.7507 13.885 14.9063 13.6827 15.037 13.458ZM11.747 14.83L10.959 17.79C11.161 17.845 11.364 17.885 11.572 17.918L11.111 20.894C11.5705 20.9655 12.0349 21.0013 12.5 21.001H12.506V14.926H12.5C12.2456 14.9261 11.9932 14.8938 11.747 14.83ZM15.328 12.755C15.3918 12.5088 15.4241 12.2554 15.424 12.001H21.5C21.5 12.468 21.466 12.941 21.387 13.396L18.417 12.935C18.383 13.1391 18.34 13.3417 18.288 13.542L15.328 12.755Z" fill="url(#paint0_linear_4_110)"/>
<defs>
<linearGradient id="paint0_linear_4_110" x1="3.5" y1="12.0005" x2="21.5" y2="12.0005" gradientUnits="userSpaceOnUse">
<stop stop-color="white"/>
<stop offset="1" stop-color="#999999"/>
</linearGradient>
</defs>
</svg>
