<svg width="24" height="24" viewBox="0 0 24 24" fill="none" xmlns="http://www.w3.org/2000/svg">
<path fill-rule="evenodd" clip-rule="evenodd" d="M3.966 15.801C4.61867 16.2677 5.456 16.501 6.478 16.501C7.714 16.501 8.70133 16.2217 9.44 15.663C10.1787 15.0963 10.6983 14.2423 10.999 13.101C11.179 12.401 11.3337 11.68 11.463 10.938C11.505 10.6727 11.5263 10.4517 11.527 10.275C11.527 9.69233 11.3767 9.19267 11.076 8.776C10.7661 8.34454 10.3358 8.01408 9.839 7.826C9.315 7.60933 8.72267 7.501 8.062 7.501C5.63267 7.501 4.126 8.64667 3.542 10.938C3.36306 11.6545 3.204 12.3757 3.065 13.101C3.02633 13.3243 3.00467 13.549 3 13.775C3 14.651 3.322 15.3263 3.966 15.801ZM8.616 13.026C8.369 13.983 7.69 14.606 6.658 14.606C5.638 14.606 5.29 13.916 5.474 13.026C5.602 12.3369 5.75678 11.6531 5.938 10.976C6.203 9.942 6.828 9.396 7.894 9.396C8.911 9.396 9.242 10.076 9.067 10.976C8.94063 11.6644 8.7902 12.3481 8.616 13.026ZM12.518 16.411C12.5687 16.471 12.64 16.5007 12.732 16.5H14.436C14.5232 16.4985 14.6072 16.4671 14.674 16.411C14.7484 16.3545 14.7978 16.2713 14.812 16.179L15.35 13.659H17.083C18.177 13.659 19.033 13.129 19.659 12.657C20.2943 12.1857 20.7163 11.457 20.925 10.471C20.975 10.239 21 10.0157 21 9.801C21 9.05633 20.7163 8.48633 20.149 8.091C19.589 7.697 18.8457 7.5 17.919 7.5H14.586C14.4987 7.50176 14.4146 7.53354 14.348 7.59C14.2752 7.64784 14.2261 7.73038 14.21 7.822L12.48 16.178C12.4704 16.2172 12.4688 16.258 12.4753 16.2979C12.4819 16.3377 12.4964 16.3769 12.518 16.411ZM18.608 10.444C18.451 11.133 17.851 11.763 17.146 11.763H15.706L16.202 9.394H17.705C18.217 9.394 18.645 9.496 18.645 10.059C18.645 10.169 18.6327 10.2973 18.608 10.444Z" fill="url(#paint0_linear_4_138)"/>
<defs>
<linearGradient id="paint0_linear_4_138" x1="3" y1="12.0005" x2="21" y2="12.0005" gradientUnits="userSpaceOnUse">
<stop stop-color="white"/>
<stop offset="1" stop-color="#999999"/>
</linearGradient>
</defs>
</svg>
