<svg width="25" height="26" viewBox="0 0 25 26" fill="none" xmlns="http://www.w3.org/2000/svg">
<g clip-path="url(#clip0_4_133)">
<path fill-rule="evenodd" clip-rule="evenodd" d="M16.2332 9.09509C16.1457 8.94468 16.1582 8.75668 16.2582 8.60627L20.4369 2.40206C20.5494 2.22659 20.562 2.01351 20.4619 1.83804C20.3618 1.65003 20.1741 1.54977 19.974 1.54977H18.3476C18.1724 1.54977 17.9973 1.6375 17.8846 1.80044L13.0054 9.07003C12.8804 9.25803 12.6802 9.3583 12.455 9.3583H11.842C11.6168 9.3583 11.4166 9.24549 11.2915 9.07003L6.43732 1.78791C6.33724 1.62496 6.14958 1.53723 5.97443 1.53723H4.34803C4.14786 1.53723 3.94769 1.65003 3.86011 1.83804C3.76003 2.02605 3.78504 2.23913 3.88514 2.40206L8.06372 8.61881C8.16381 8.75668 8.17631 8.94468 8.08875 9.09509C8.00117 9.25803 7.85104 9.34577 7.67589 9.34577H1.2829C0.970126 9.34577 0.732422 9.59644 0.732422 9.89725V11.2509C0.732422 11.5642 0.982637 11.8024 1.2829 11.8024H23.0391C23.3518 11.8024 23.5895 11.5517 23.5895 11.2509V9.89725C23.5895 9.60897 23.3769 9.38337 23.1017 9.34577C23.0766 9.34577 23.0516 9.34577 23.0266 9.34577H16.6461C16.4709 9.34577 16.3083 9.25803 16.2332 9.09509ZM11.304 17.0791L6.42482 24.3487C6.32473 24.5116 6.13707 24.5994 5.96191 24.5994H4.33551C4.13534 24.5994 3.94768 24.4865 3.84759 24.3111C3.74751 24.1355 3.76003 23.91 3.87262 23.7471L8.0387 17.5429C8.13878 17.3925 8.1513 17.2169 8.06372 17.0541C7.97614 16.9036 7.82602 16.8034 7.65086 16.8034H1.2829C0.982637 16.8034 0.732422 16.5652 0.732422 16.2518V14.8982C0.732422 14.5975 0.970126 14.3468 1.2829 14.3468H22.9891C22.9891 14.3468 23.0266 14.3468 23.0391 14.3468C23.3394 14.3468 23.5895 14.5849 23.5895 14.8982V16.2518C23.5895 16.5527 23.3518 16.8034 23.0391 16.8034H16.6586C16.4709 16.8034 16.3209 16.8911 16.2458 17.0541C16.1582 17.2169 16.1707 17.3925 16.2708 17.5303L20.4494 23.7471C20.5494 23.91 20.5745 24.1231 20.4743 24.3111C20.3743 24.4991 20.1867 24.6119 19.9865 24.6119H18.3601C18.1724 24.6119 18.0098 24.5242 17.9097 24.3738L13.0305 17.1042C12.9054 16.9162 12.7052 16.8159 12.4801 16.8159H11.867C11.6418 16.8159 11.4416 16.9287 11.3165 17.1042L11.304 17.0791Z" fill="url(#paint0_linear_4_133)"/>
</g>
<defs>
<linearGradient id="paint0_linear_4_133" x1="0.732422" y1="13.0746" x2="23.5895" y2="13.0746" gradientUnits="userSpaceOnUse">
<stop stop-color="white"/>
<stop offset="1" stop-color="#999999"/>
</linearGradient>
<clipPath id="clip0_4_133">
<rect width="24" height="25.1599" fill="white" transform="translate(0.5 0.420044)"/>
</clipPath>
</defs>
</svg>
