<svg width="358" height="316" viewBox="0 0 358 316" fill="none" xmlns="http://www.w3.org/2000/svg">
<path d="M1.43555 -14.0664V209.015" stroke="url(#paint0_linear_35_15)"/>
<rect x="33.4062" y="58.9845" width="231.893" height="77.4875" fill="#D9D9D9" fill-opacity="0.03" stroke="url(#paint1_linear_35_15)" stroke-width="2"/>
<rect x="221.41" y="270.336" width="115.51" height="39.2557" fill="#D9D9D9" fill-opacity="0.03"/>
<rect x="221.91" y="270.836" width="114.51" height="38.2557" stroke="url(#paint2_linear_35_15)" stroke-opacity="0.15"/>
<rect x="19.8633" y="45.0117" width="12.9746" height="12.9746" stroke="white" stroke-opacity="0.15"/>
<rect x="215.217" y="263.93" width="6.40764" height="6.40764" stroke="white" stroke-opacity="0.15"/>
<rect x="19.8633" y="137.473" width="12.9746" height="12.9746" stroke="white" stroke-opacity="0.15"/>
<rect x="215.217" y="309.594" width="6.40764" height="6.40764" stroke="white" stroke-opacity="0.15"/>
<rect x="266.299" y="137.473" width="12.9746" height="12.9746" stroke="white" stroke-opacity="0.15"/>
<rect x="336.922" y="309.594" width="6.40764" height="6.40764" stroke="white" stroke-opacity="0.15"/>
<rect x="266.299" y="45.0117" width="12.9746" height="12.9746" stroke="white" stroke-opacity="0.15"/>
<rect x="336.922" y="263.93" width="6.40764" height="6.40764" stroke="white" stroke-opacity="0.15"/>
<path d="M295.469 -14.5V211.507" stroke="url(#paint3_linear_35_15)"/>
<path d="M310.422 139.117H343.728H345.767V61.6289H310.422V139.117Z" fill="#D9D9D9" fill-opacity="0.04" stroke="url(#paint4_linear_35_15)"/>
<path d="M331.219 235.488H364.524H366.564V158H331.219V235.488Z" fill="#D9D9D9" fill-opacity="0.04" stroke="url(#paint5_linear_35_15)" stroke-opacity="0.08"/>
<rect x="115.6" y="75.1078" width="46.8" height="46.8" rx="23.4" stroke="white" stroke-opacity="0.25" stroke-width="1.2"/>
<rect x="118.6" y="78.1078" width="40.8" height="40.8" rx="20.4" fill="white" fill-opacity="0.08"/>
<path d="M152.025 97.0616V94.1673H149.131V91.273C149.129 90.5061 148.823 89.7712 148.281 89.2289C147.739 88.6866 147.004 88.381 146.237 88.3787H143.342V85.4844H140.448V88.3787H137.554V85.4844H134.66V88.3787H131.765C130.998 88.381 130.263 88.6866 129.721 89.2289C129.179 89.7712 128.873 90.5061 128.871 91.273V94.1673H125.977V97.0616H128.871V99.9559H125.977V102.85H128.871V105.745C128.873 106.511 129.179 107.246 129.721 107.789C130.263 108.331 130.998 108.637 131.765 108.639H134.66V111.533H137.554V108.639H140.448V111.533H143.342V108.639H146.237C147.004 108.637 147.739 108.331 148.281 107.789C148.823 107.246 149.129 106.511 149.131 105.745V102.85H152.025V99.9559H149.131V97.0616H152.025ZM146.237 105.745H131.765V91.273H146.237V105.745Z" fill="url(#paint6_linear_35_15)"/>
<path d="M138.076 92.7188H136.129L133.221 104.296H134.707L135.378 101.583H138.73L139.384 104.296H140.921L138.076 92.7188ZM135.574 100.423L137.047 94.0935H137.114L138.536 100.423H135.574ZM142.248 92.7188H143.695V104.296H142.248V92.7188Z" fill="url(#paint7_linear_35_15)"/>
<rect x="-0.591012" y="0.591012" width="46.0989" height="46.0989" rx="23.0495" transform="matrix(-1 0 0 1 91.0524 76.7344)" stroke="white" stroke-opacity="0.25" stroke-width="1.18202"/>
<rect width="40.1888" height="40.1888" rx="20.0944" transform="matrix(-1 0 0 1 88.6884 80.2804)" fill="white" fill-opacity="0.08"/>
<path d="M74.6989 90.8722C75.3309 90.872 75.9515 91.0399 76.4973 91.3586C77.043 91.6773 77.4941 92.1355 77.8044 92.686C78.1147 93.2365 78.2731 93.8597 78.2632 94.4915C78.2533 95.1234 78.0756 95.7413 77.7483 96.2819C78.5613 96.439 79.2943 96.8743 79.8214 97.513C80.3485 98.1517 80.6368 98.9539 80.6368 99.782C80.6368 100.61 80.3485 101.412 79.8214 102.051C79.2943 102.69 78.5613 103.125 77.7483 103.282M74.6989 90.8722C74.6989 90.0846 74.3861 89.3292 73.8291 88.7723C73.2722 88.2153 72.5168 87.9025 71.7292 87.9025C70.9416 87.9025 70.1862 88.2153 69.6293 88.7723C69.0723 89.3292 68.7594 90.0846 68.7594 90.8722V108.691C68.7594 109.478 69.0723 110.234 69.6293 110.791C70.1862 111.348 70.9416 111.66 71.7292 111.66C72.5168 111.66 73.2722 111.348 73.8291 110.791C74.3861 110.234 74.6989 109.478 74.6989 108.691C75.3307 108.691 75.9512 108.523 76.4967 108.204C77.0422 107.885 77.4932 107.428 77.8035 106.877C78.1138 106.327 78.2722 105.704 78.2625 105.072C78.2528 104.44 78.0753 103.823 77.7483 103.282M74.6989 90.8722C74.6989 91.8439 74.2321 92.7063 73.511 93.248M77.7483 103.282C77.322 102.576 76.6641 102.04 75.8868 101.765M60.1472 91.1692L62.82 93.842H65.1958M60.1472 108.394L62.82 105.721H65.1958M60.1472 99.7814H65.1958M61.0381 91.1692C61.0381 91.4055 60.9442 91.6321 60.7772 91.7992C60.6101 91.9662 60.3835 92.0601 60.1472 92.0601C59.9109 92.0601 59.6843 91.9662 59.5172 91.7992C59.3501 91.6321 59.2563 91.4055 59.2563 91.1692C59.2563 90.9329 59.3501 90.7063 59.5172 90.5392C59.6843 90.3721 59.9109 90.2783 60.1472 90.2783C60.3835 90.2783 60.6101 90.3721 60.7772 90.5392C60.9442 90.7063 61.0381 90.9329 61.0381 91.1692ZM61.0381 108.394C61.0381 108.157 60.9442 107.931 60.7772 107.764C60.6101 107.597 60.3835 107.503 60.1472 107.503C59.9109 107.503 59.6843 107.597 59.5172 107.764C59.3501 107.931 59.2563 108.157 59.2563 108.394C59.2563 108.63 59.3501 108.857 59.5172 109.024C59.6843 109.191 59.9109 109.285 60.1472 109.285C60.3835 109.285 60.6101 109.191 60.7772 109.024C60.9442 108.857 61.0381 108.63 61.0381 108.394ZM61.0381 99.7814C61.0381 100.018 60.9442 100.244 60.7772 100.411C60.6101 100.579 60.3835 100.672 60.1472 100.672C59.9109 100.672 59.6843 100.579 59.5172 100.411C59.3501 100.244 59.2563 100.018 59.2563 99.7814C59.2563 99.5452 59.3501 99.3185 59.5172 99.1515C59.6843 98.9844 59.9109 98.8905 60.1472 98.8905C60.3835 98.8905 60.6101 98.9844 60.7772 99.1515C60.9442 99.3185 61.0381 99.5452 61.0381 99.7814Z" stroke="url(#paint8_linear_35_15)" stroke-width="1.78185" stroke-linecap="round" stroke-linejoin="round"/>
<rect x="194.544" y="77.3254" width="46.0989" height="46.0989" rx="23.0495" stroke="white" stroke-opacity="0.25" stroke-width="1.18202"/>
<rect x="197.499" y="80.2804" width="40.1888" height="40.1888" rx="20.0944" fill="white" fill-opacity="0.08"/>
<path d="M206.092 95.9793C207.609 91.16 212.123 87.6641 217.456 87.6641C223.63 87.6641 228.707 92.3527 229.305 98.3551L226.929 97.8717M228.76 103.107C227.995 105.52 226.481 107.627 224.438 109.123C222.394 110.618 219.928 111.423 217.396 111.422C211.221 111.422 206.144 106.733 205.547 100.731L207.923 101.214" stroke="url(#paint9_linear_35_15)" stroke-width="1.78185" stroke-linecap="round" stroke-linejoin="round"/>
<path d="M213.863 101.36V103.726C213.86 103.917 213.906 104.105 213.996 104.273C214.085 104.441 214.216 104.584 214.376 104.688C215.379 105.315 216.14 105.499 217.43 105.539C218.619 105.571 219.365 105.384 220.475 104.691C220.637 104.586 220.771 104.441 220.862 104.271C220.953 104.101 221 103.91 220.997 103.716V101.36M223.377 98.3745V101.956M211.544 98.1713C211.974 97.2638 214.639 95.6839 217.07 94.9034C217.305 94.829 217.557 94.8348 217.788 94.9201C219.938 95.7064 222.33 96.8979 223.199 97.8637C223.651 98.3685 223.208 99.0124 222.66 99.4103C221.547 100.219 220.32 100.848 217.84 101.802C217.577 101.902 217.287 101.904 217.023 101.807C214.481 100.863 212.102 99.6455 211.564 98.5728C211.531 98.5117 211.512 98.4439 211.508 98.3744C211.505 98.3049 211.517 98.2355 211.544 98.1713Z" stroke="url(#paint10_linear_35_15)" stroke-width="1.78185" stroke-linecap="round" stroke-linejoin="round"/>
<defs>
<linearGradient id="paint0_linear_35_15" x1="1.93555" y1="-14.0673" x2="1.93555" y2="209.016" gradientUnits="userSpaceOnUse">
<stop stop-color="#465D98"/>
<stop offset="1" stop-color="#88A2E4"/>
</linearGradient>
<linearGradient id="paint1_linear_35_15" x1="149.353" y1="57.9842" x2="149.353" y2="137.472" gradientUnits="userSpaceOnUse">
<stop stop-color="#465D98"/>
<stop offset="1" stop-color="#88A2E4"/>
</linearGradient>
<linearGradient id="paint2_linear_35_15" x1="279.165" y1="270.336" x2="279.165" y2="309.592" gradientUnits="userSpaceOnUse">
<stop stop-color="#464998"/>
<stop offset="1" stop-color="#8888E4"/>
</linearGradient>
<linearGradient id="paint3_linear_35_15" x1="295.969" y1="-14.5009" x2="295.969" y2="211.508" gradientUnits="userSpaceOnUse">
<stop stop-color="#465D98"/>
<stop offset="1" stop-color="#88A2E4"/>
</linearGradient>
<linearGradient id="paint4_linear_35_15" x1="328.094" y1="61.6286" x2="328.094" y2="139.117" gradientUnits="userSpaceOnUse">
<stop stop-color="#465D98"/>
<stop offset="1" stop-color="#88A2E4"/>
</linearGradient>
<linearGradient id="paint5_linear_35_15" x1="348.891" y1="158" x2="348.891" y2="235.489" gradientUnits="userSpaceOnUse">
<stop stop-color="#464998"/>
<stop offset="1" stop-color="#8888E4"/>
</linearGradient>
<linearGradient id="paint6_linear_35_15" x1="139.001" y1="85.4843" x2="139.001" y2="111.533" gradientUnits="userSpaceOnUse">
<stop stop-color="#465D98"/>
<stop offset="1" stop-color="#88A2E4"/>
</linearGradient>
<linearGradient id="paint7_linear_35_15" x1="138.458" y1="92.7187" x2="138.458" y2="104.296" gradientUnits="userSpaceOnUse">
<stop stop-color="#465D98"/>
<stop offset="1" stop-color="#88A2E4"/>
</linearGradient>
<linearGradient id="paint8_linear_35_15" x1="69.9465" y1="87.9024" x2="69.9465" y2="111.661" gradientUnits="userSpaceOnUse">
<stop stop-color="#465D98"/>
<stop offset="1" stop-color="#88A2E4"/>
</linearGradient>
<linearGradient id="paint9_linear_35_15" x1="217.426" y1="87.664" x2="217.426" y2="111.422" gradientUnits="userSpaceOnUse">
<stop stop-color="#465D98"/>
<stop offset="1" stop-color="#88A2E4"/>
</linearGradient>
<linearGradient id="paint10_linear_35_15" x1="217.447" y1="94.8515" x2="217.447" y2="105.542" gradientUnits="userSpaceOnUse">
<stop stop-color="#465D98"/>
<stop offset="1" stop-color="#88A2E4"/>
</linearGradient>
</defs>
</svg>
