<svg width="368" height="307" viewBox="0 0 368 307" fill="none" xmlns="http://www.w3.org/2000/svg">
<rect x="172.121" y="155.836" width="79.487" height="79.487" rx="11.609" fill="#D9D9D9" fill-opacity="0.05"/>
<rect x="179.824" y="163.539" width="64.0771" height="64.0771" rx="11.109" fill="#D9D9D9" fill-opacity="0.02" stroke="url(#paint0_linear_35_19)"/>
<rect x="0.115234" y="0.09375" width="46.4541" height="306.813" rx="11.609" fill="#D9D9D9" fill-opacity="0.02"/>
<rect x="0.615234" y="0.59375" width="45.4541" height="305.813" rx="11.109" stroke="url(#paint1_linear_35_19)" stroke-opacity="0.04"/>
<rect x="321" width="46.4541" height="306.813" rx="11.609" fill="#D9D9D9" fill-opacity="0.02"/>
<rect x="321.5" y="0.5" width="45.4541" height="305.813" rx="11.109" stroke="url(#paint2_linear_35_19)" stroke-opacity="0.04"/>
<path d="M245.635 157.984V157.984C245.635 148.831 253.055 141.41 262.209 141.41H282.587M253.786 195.48H319.713M245.635 234.063V234.063C245.635 242.166 252.204 248.735 260.307 248.735H282.587" stroke="url(#paint3_linear_35_19)" stroke-width="0.829212"/>
<path d="M179.324 157.984V157.984C179.324 148.831 171.904 141.41 162.75 141.41H142.372M171.173 195.48H111.616M179.324 234.063V234.063C179.324 242.166 172.755 248.735 164.652 248.735H142.372" stroke="url(#paint4_linear_35_19)"/>
<rect x="283.002" y="125.239" width="32.3393" height="32.3393" rx="16.1696" stroke="url(#paint5_linear_35_19)" stroke-width="0.829212"/>
<rect x="285.076" y="127.312" width="28.1932" height="28.1932" rx="14.0966" fill="white" fill-opacity="0.08"/>
<path d="M291.408 140.577L298.594 131.664L306.055 140.577L298.594 150.664L291.408 140.577Z" fill="white" fill-opacity="0.04" stroke="white" stroke-opacity="0.5"/>
<rect x="320.46" y="178.903" width="32.3393" height="32.3393" rx="16.1696" stroke="url(#paint6_linear_35_19)" stroke-width="0.829212"/>
<rect x="322.533" y="180.976" width="28.1932" height="28.1932" rx="14.0966" fill="white" fill-opacity="0.08"/>
<path d="M336.63 195.604C338.666 195.604 340.317 193.953 340.317 191.917C340.317 189.881 338.666 188.23 336.63 188.23C334.594 188.23 332.943 189.881 332.943 191.917C332.943 193.953 334.594 195.604 336.63 195.604Z" stroke="white" stroke-opacity="0.8" stroke-linecap="round" stroke-linejoin="round"/>
<path d="M342.94 201.91C342.94 200.237 342.275 198.632 341.092 197.449C339.909 196.266 338.304 195.602 336.631 195.602C334.958 195.602 333.353 196.266 332.17 197.449C330.987 198.632 330.322 200.237 330.322 201.91" stroke="white" stroke-opacity="0.8" stroke-linecap="round" stroke-linejoin="round"/>
<rect x="283.002" y="232.563" width="32.3393" height="32.3393" rx="16.1696" stroke="url(#paint7_linear_35_19)" stroke-width="0.829212"/>
<rect x="285.076" y="234.636" width="28.1932" height="28.1932" rx="14.0966" fill="white" fill-opacity="0.08"/>
<path d="M291.408 248.577L298.594 239.664L306.055 248.577L298.594 258.664L291.408 248.577Z" fill="white" fill-opacity="0.04" stroke="white" stroke-opacity="0.5"/>
<rect x="109.538" y="232.563" width="32.3393" height="32.3393" rx="16.1696" stroke="url(#paint8_linear_35_19)" stroke-width="0.829212"/>
<rect x="111.611" y="234.636" width="28.1932" height="28.1932" rx="14.0966" fill="white" fill-opacity="0.08"/>
<path d="M125.706 249.264C127.742 249.264 129.393 247.614 129.393 245.578C129.393 243.541 127.742 241.891 125.706 241.891C123.67 241.891 122.019 243.541 122.019 245.578C122.019 247.614 123.67 249.264 125.706 249.264Z" stroke="white" stroke-opacity="0.8" stroke-linecap="round" stroke-linejoin="round"/>
<path d="M132.016 255.575C132.016 253.901 131.351 252.297 130.168 251.114C128.985 249.931 127.38 249.266 125.707 249.266C124.034 249.266 122.429 249.931 121.246 251.114C120.063 252.297 119.398 253.901 119.398 255.575" stroke="white" stroke-opacity="0.8" stroke-linecap="round" stroke-linejoin="round"/>
<rect x="76.3677" y="178.899" width="32.3393" height="32.3393" rx="16.1696" stroke="url(#paint9_linear_35_19)" stroke-width="0.829212"/>
<rect x="78.4407" y="180.972" width="28.1932" height="28.1932" rx="14.0966" fill="white" fill-opacity="0.08"/>
<path d="M85.4062 194.573L92.5918 185.66L100.053 194.573L92.5918 204.66L85.4062 194.573Z" fill="white" fill-opacity="0.04" stroke="white" stroke-opacity="0.5"/>
<rect x="109.538" y="125.239" width="32.3393" height="32.3393" rx="16.1696" stroke="url(#paint10_linear_35_19)" stroke-width="0.829212"/>
<rect x="111.611" y="127.312" width="28.1932" height="28.1932" rx="14.0966" fill="white" fill-opacity="0.08"/>
<path d="M125.706 141.94C127.742 141.94 129.393 140.289 129.393 138.253C129.393 136.217 127.742 134.567 125.706 134.567C123.67 134.567 122.019 136.217 122.019 138.253C122.019 140.289 123.67 141.94 125.706 141.94Z" stroke="white" stroke-opacity="0.8" stroke-linecap="round" stroke-linejoin="round"/>
<path d="M132.016 148.246C132.016 146.573 131.351 144.969 130.168 143.786C128.985 142.602 127.38 141.938 125.707 141.938C124.034 141.938 122.429 142.602 121.246 143.786C120.063 144.969 119.398 146.573 119.398 148.246" stroke="white" stroke-opacity="0.8" stroke-linecap="round" stroke-linejoin="round"/>
<path d="M194.973 193.716L211.545 173.16L228.755 193.716L211.545 216.982L194.973 193.716Z" fill="white" fill-opacity="0.04" stroke="url(#paint11_linear_35_19)" stroke-opacity="0.1"/>
<path d="M198.039 199.738H193.801V186.647H198.174C199.456 186.647 200.558 186.909 201.478 187.434C202.399 187.953 203.104 188.701 203.594 189.677C204.088 190.649 204.336 191.814 204.336 193.174C204.336 194.537 204.086 195.709 203.588 196.689C203.093 197.669 202.377 198.424 201.44 198.952C200.502 199.476 199.369 199.738 198.039 199.738ZM195.777 198.012H197.931C198.928 198.012 199.757 197.825 200.417 197.45C201.078 197.071 201.572 196.523 201.9 195.807C202.228 195.087 202.392 194.209 202.392 193.174C202.392 192.147 202.228 191.275 201.9 190.559C201.576 189.843 201.093 189.3 200.449 188.929C199.806 188.559 199.007 188.373 198.052 188.373H195.777V198.012ZM207.247 199.738H205.151L209.862 186.647H212.143L216.854 199.738H214.758L211.057 189.025H210.955L207.247 199.738ZM207.599 194.612H214.4V196.274H207.599V194.612ZM229.501 193.193C229.501 194.591 229.245 195.792 228.734 196.798C228.223 197.799 227.522 198.571 226.631 199.112C225.745 199.649 224.737 199.917 223.608 199.917C222.474 199.917 221.462 199.649 220.571 199.112C219.685 198.571 218.986 197.797 218.475 196.792C217.963 195.786 217.708 194.586 217.708 193.193C217.708 191.795 217.963 190.596 218.475 189.594C218.986 188.588 219.685 187.817 220.571 187.28C221.462 186.739 222.474 186.468 223.608 186.468C224.737 186.468 225.745 186.739 226.631 187.28C227.522 187.817 228.223 188.588 228.734 189.594C229.245 190.596 229.501 191.795 229.501 193.193ZM227.545 193.193C227.545 192.127 227.373 191.23 227.027 190.502C226.686 189.769 226.218 189.215 225.621 188.84C225.029 188.461 224.358 188.271 223.608 188.271C222.853 188.271 222.18 188.461 221.588 188.84C220.995 189.215 220.527 189.769 220.181 190.502C219.841 191.23 219.67 192.127 219.67 193.193C219.67 194.258 219.841 195.157 220.181 195.89C220.527 196.619 220.995 197.173 221.588 197.552C222.18 197.927 222.853 198.115 223.608 198.115C224.358 198.115 225.029 197.927 225.621 197.552C226.218 197.173 226.686 196.619 227.027 195.89C227.373 195.157 227.545 194.258 227.545 193.193Z" fill="url(#paint12_linear_35_19)"/>
<defs>
<linearGradient id="paint0_linear_35_19" x1="211.863" y1="163.039" x2="211.863" y2="228.117" gradientUnits="userSpaceOnUse">
<stop stop-color="#465D98"/>
<stop offset="1" stop-color="#88A2E4"/>
</linearGradient>
<linearGradient id="paint1_linear_35_19" x1="23.3423" y1="0.0925208" x2="23.3423" y2="306.908" gradientUnits="userSpaceOnUse">
<stop stop-color="#464998"/>
<stop offset="1" stop-color="#8888E4"/>
</linearGradient>
<linearGradient id="paint2_linear_35_19" x1="344.227" y1="-0.00122918" x2="344.227" y2="306.814" gradientUnits="userSpaceOnUse">
<stop stop-color="#464998"/>
<stop offset="1" stop-color="#8888E4"/>
</linearGradient>
<linearGradient id="paint3_linear_35_19" x1="282.674" y1="141.41" x2="282.674" y2="248.736" gradientUnits="userSpaceOnUse">
<stop stop-color="#465D98"/>
<stop offset="1" stop-color="#88A2E4"/>
</linearGradient>
<linearGradient id="paint4_linear_35_19" x1="145.47" y1="141.41" x2="145.47" y2="248.736" gradientUnits="userSpaceOnUse">
<stop stop-color="#465D98"/>
<stop offset="1" stop-color="#88A2E4"/>
</linearGradient>
<linearGradient id="paint5_linear_35_19" x1="299.172" y1="124.824" x2="299.172" y2="157.993" gradientUnits="userSpaceOnUse">
<stop stop-color="#465D98"/>
<stop offset="1" stop-color="#88A2E4"/>
</linearGradient>
<linearGradient id="paint6_linear_35_19" x1="336.629" y1="178.488" x2="336.629" y2="211.657" gradientUnits="userSpaceOnUse">
<stop stop-color="#465D98"/>
<stop offset="1" stop-color="#88A2E4"/>
</linearGradient>
<linearGradient id="paint7_linear_35_19" x1="299.172" y1="232.148" x2="299.172" y2="265.317" gradientUnits="userSpaceOnUse">
<stop stop-color="#465D98"/>
<stop offset="1" stop-color="#88A2E4"/>
</linearGradient>
<linearGradient id="paint8_linear_35_19" x1="125.707" y1="232.148" x2="125.707" y2="265.317" gradientUnits="userSpaceOnUse">
<stop stop-color="#465D98"/>
<stop offset="1" stop-color="#88A2E4"/>
</linearGradient>
<linearGradient id="paint9_linear_35_19" x1="92.5374" y1="178.484" x2="92.5374" y2="211.653" gradientUnits="userSpaceOnUse">
<stop stop-color="#465D98"/>
<stop offset="1" stop-color="#88A2E4"/>
</linearGradient>
<linearGradient id="paint10_linear_35_19" x1="125.707" y1="124.824" x2="125.707" y2="157.993" gradientUnits="userSpaceOnUse">
<stop stop-color="#465D98"/>
<stop offset="1" stop-color="#88A2E4"/>
</linearGradient>
<linearGradient id="paint11_linear_35_19" x1="211.864" y1="173.16" x2="211.864" y2="216.982" gradientUnits="userSpaceOnUse">
<stop stop-color="#464998"/>
<stop offset="1" stop-color="#8888E4"/>
</linearGradient>
<linearGradient id="paint12_linear_35_19" x1="211.863" y1="181.738" x2="211.863" y2="203.738" gradientUnits="userSpaceOnUse">
<stop stop-color="#465D98"/>
<stop offset="1" stop-color="#88A2E4"/>
</linearGradient>
</defs>
</svg>
