<svg width="389" height="452" viewBox="0 0 389 452" fill="none" xmlns="http://www.w3.org/2000/svg">
<rect x="184.928" y="73.4887" width="350.588" height="350.588" rx="24.95" transform="rotate(45 184.928 73.4887)" fill="white" fill-opacity="0.01"/>
<rect x="184.928" y="73.4887" width="350.588" height="350.588" rx="24.95" transform="rotate(45 184.928 73.4887)" stroke="url(#paint0_linear_15_241)" stroke-width="0.1"/>
<rect opacity="0.6" x="184.928" y="115.825" width="290.715" height="290.715" rx="39.9" transform="rotate(45 184.928 115.825)" fill="#D9D9D9" fill-opacity="0.03" stroke="url(#paint1_linear_15_241)" stroke-width="0.2"/>
<rect x="184.928" y="159.74" width="228.608" height="228.608" rx="39.75" transform="rotate(45 184.928 159.74)" stroke="url(#paint2_linear_15_241)" stroke-width="0.5"/>
<rect opacity="0.1" x="184.928" y="74.1251" width="349.688" height="349.688" rx="39.5" transform="rotate(45 184.928 74.1251)" stroke="white" stroke-opacity="0.05"/>
<rect x="184.928" y="228.238" width="124.919" height="124.919" rx="6" transform="rotate(45 184.928 228.238)" fill="white" fill-opacity="0.01"/>
<rect x="184.928" y="228.238" width="124.919" height="124.919" rx="6" transform="rotate(45 184.928 228.238)" stroke="url(#paint3_linear_15_241)" stroke-width="2"/>
<path d="M184.935 290.895L163.935 300.228V314.228C163.935 327.178 172.895 339.288 184.935 342.228C196.975 339.288 205.935 327.178 205.935 314.228V300.228L184.935 290.895ZM184.935 316.538H201.268C200.031 326.151 193.615 334.715 184.935 337.398V316.561H168.601V303.261L184.935 296.005V316.538Z" fill="white"/>
<path d="M184.935 290.895L163.935 300.228V314.228C163.935 327.178 172.895 339.288 184.935 342.228C196.975 339.288 205.935 327.178 205.935 314.228V300.228L184.935 290.895ZM184.935 316.538H201.268C200.031 326.151 193.615 334.715 184.935 337.398V316.561H168.601V303.261L184.935 296.005V316.538Z" fill="url(#paint4_linear_15_241)"/>
<rect x="169.28" y="198.229" width="31.294" height="31.294" rx="15.647" fill="white" fill-opacity="0.08"/>
<rect x="169.28" y="198.229" width="31.294" height="31.294" rx="15.647" stroke="url(#paint5_linear_15_241)" stroke-width="0.802409"/>
<path d="M190.369 211.375L185.76 206.767C185.643 206.649 185.484 206.584 185.319 206.583H181.594C180.986 206.583 180.403 206.825 179.973 207.255C179.544 207.684 179.302 208.267 179.302 208.875V218.875C179.302 219.483 179.544 220.066 179.973 220.495C180.403 220.925 180.986 221.167 181.594 221.167H188.26C188.868 221.167 189.451 220.925 189.881 220.495C190.311 220.066 190.552 219.483 190.552 218.875V211.792C190.546 211.635 190.48 211.486 190.369 211.375ZM185.969 208.717L188.419 211.167H185.969V208.717ZM188.26 219.917H181.594C181.317 219.917 181.053 219.807 180.857 219.612C180.662 219.416 180.552 219.151 180.552 218.875V208.875C180.552 208.599 180.662 208.334 180.857 208.138C181.053 207.943 181.317 207.833 181.594 207.833H184.719V211.792C184.721 211.957 184.787 212.115 184.904 212.231C185.021 212.348 185.179 212.415 185.344 212.417H189.302V218.875C189.302 219.151 189.192 219.416 188.997 219.612C188.802 219.807 188.537 219.917 188.26 219.917Z" fill="white" fill-opacity="0.8"/>
<path d="M190.015 211.729L190.016 211.729C190.037 211.75 190.049 211.777 190.052 211.806V218.875C190.052 219.35 189.863 219.806 189.527 220.142C189.191 220.478 188.736 220.667 188.26 220.667H181.594C181.119 220.667 180.663 220.478 180.327 220.142C179.991 219.806 179.802 219.35 179.802 218.875V208.875C179.802 208.4 179.991 207.944 180.327 207.608C180.663 207.272 181.119 207.083 181.594 207.083H185.318C185.352 207.083 185.383 207.097 185.407 207.12L185.407 207.12L190.015 211.729ZM186.322 208.363L185.469 207.51V208.717V211.167V211.667H185.969H188.419H189.626L188.772 210.813L186.322 208.363ZM185.219 207.833V207.333H184.719H181.594C181.185 207.333 180.793 207.496 180.504 207.785C180.215 208.074 180.052 208.466 180.052 208.875V218.875C180.052 219.284 180.215 219.676 180.504 219.965C180.793 220.254 181.185 220.417 181.594 220.417H188.26C188.669 220.417 189.061 220.254 189.351 219.965C189.64 219.676 189.802 219.284 189.802 218.875V212.417V211.917H189.302H185.348C185.314 211.916 185.282 211.902 185.258 211.878C185.234 211.854 185.22 211.821 185.219 211.787V207.833Z" stroke="white" stroke-opacity="0.8"/>
<rect x="273.354" y="300.917" width="31.294" height="31.294" rx="15.647" fill="white" fill-opacity="0.08"/>
<rect x="273.354" y="300.917" width="31.294" height="31.294" rx="15.647" stroke="url(#paint6_linear_15_241)" stroke-width="0.802409"/>
<mask id="path-11-inside-1_15_241" fill="white">
<path d="M295.326 316.147L291.501 312.322V314.372L290.785 314.481C287.193 314.989 284.76 316.872 283.368 319.756C285.301 318.389 287.701 317.731 290.668 317.731H291.501V319.972M289.835 318.581C286.11 318.756 283.443 320.097 281.501 322.814C282.335 318.647 284.835 314.481 290.668 313.647V310.314L296.501 316.147L290.668 321.981V318.564C290.393 318.564 290.118 318.572 289.835 318.581Z"/>
</mask>
<path d="M295.326 316.147L291.501 312.322V314.372L290.785 314.481C287.193 314.989 284.76 316.872 283.368 319.756C285.301 318.389 287.701 317.731 290.668 317.731H291.501V319.972M289.835 318.581C286.11 318.756 283.443 320.097 281.501 322.814C282.335 318.647 284.835 314.481 290.668 313.647V310.314L296.501 316.147L290.668 321.981V318.564C290.393 318.564 290.118 318.572 289.835 318.581Z" fill="white" fill-opacity="0.8"/>
<path d="M289.335 318.564V318.581H290.335V318.564H289.335ZM291.501 312.322L292.208 311.615L290.501 309.908V312.322H291.501ZM291.501 314.372L291.651 315.361L292.501 315.232V314.372H291.501ZM290.785 314.481L290.925 315.471L290.934 315.469L290.785 314.481ZM283.368 319.756L282.467 319.321L280.785 322.806L283.945 320.572L283.368 319.756ZM291.501 317.731H292.501V316.731H291.501V317.731ZM289.835 318.581L289.805 317.581L289.796 317.581L289.788 317.582L289.835 318.581ZM281.501 322.814L280.521 322.618L282.315 323.395L281.501 322.814ZM290.668 313.647L290.809 314.637L291.668 314.514V313.647H290.668ZM290.668 310.314L291.375 309.607L289.668 307.9V310.314H290.668ZM296.501 316.147L297.208 316.854L297.916 316.147L297.208 315.44L296.501 316.147ZM290.668 321.981H289.668V324.395L291.375 322.688L290.668 321.981ZM290.668 318.564H291.668V317.564H290.668V318.564ZM296.033 315.44L292.208 311.615L290.794 313.029L294.619 316.854L296.033 315.44ZM290.501 312.322V314.372H292.501V312.322H290.501ZM291.352 313.383L290.635 313.492L290.934 315.469L291.651 315.361L291.352 313.383ZM290.645 313.49C286.726 314.045 284.006 316.134 282.467 319.321L284.269 320.19C285.514 317.611 287.66 315.933 290.925 315.471L290.645 313.49ZM283.945 320.572C285.669 319.353 287.852 318.731 290.668 318.731V316.731C287.551 316.731 284.933 317.424 282.791 318.939L283.945 320.572ZM290.668 318.731H291.501V316.731H290.668V318.731ZM290.501 317.731V319.972H292.501V317.731H290.501ZM289.788 317.582C285.802 317.769 282.832 319.232 280.688 322.232L282.315 323.395C284.054 320.962 286.418 319.742 289.882 319.579L289.788 317.582ZM282.482 323.01C282.875 321.044 283.651 319.138 284.962 317.639C286.259 316.157 288.123 315.021 290.809 314.637L290.527 312.657C287.379 313.107 285.077 314.471 283.457 316.322C281.852 318.156 280.961 320.417 280.521 322.618L282.482 323.01ZM291.668 313.647V310.314H289.668V313.647H291.668ZM289.961 311.021L295.794 316.854L297.208 315.44L291.375 309.607L289.961 311.021ZM295.794 315.44L289.961 321.273L291.375 322.688L297.208 316.854L295.794 315.44ZM291.668 321.981V318.564H289.668V321.981H291.668ZM290.668 317.564C290.376 317.564 290.085 317.573 289.805 317.581L289.864 319.58C290.151 319.572 290.41 319.564 290.668 319.564V317.564Z" fill="white" fill-opacity="0.8" mask="url(#path-11-inside-1_15_241)"/>
<rect x="169.288" y="405.225" width="31.294" height="31.294" rx="15.647" fill="white" fill-opacity="0.08"/>
<rect x="169.288" y="405.225" width="31.294" height="31.294" rx="15.647" stroke="url(#paint7_linear_15_241)" stroke-width="0.802409"/>
<path d="M184.936 418.372C184.273 418.372 183.637 418.109 183.168 417.64C182.699 417.171 182.436 416.535 182.436 415.872C182.436 415.209 182.699 414.574 183.168 414.105C183.637 413.636 184.273 413.372 184.936 413.372C185.599 413.372 186.234 413.636 186.703 414.105C187.172 414.574 187.436 415.209 187.436 415.872C187.436 416.535 187.172 417.171 186.703 417.64C186.234 418.109 185.599 418.372 184.936 418.372ZM179.519 428.372C178.856 428.372 178.22 428.109 177.751 427.64C177.282 427.171 177.019 426.535 177.019 425.872C177.019 425.209 177.282 424.574 177.751 424.105C178.22 423.636 178.856 423.372 179.519 423.372C180.182 423.372 180.818 423.636 181.287 424.105C181.755 424.574 182.019 425.209 182.019 425.872C182.019 426.535 181.755 427.171 181.287 427.64C180.818 428.109 180.182 428.372 179.519 428.372ZM190.352 428.372C189.689 428.372 189.053 428.109 188.584 427.64C188.116 427.171 187.852 426.535 187.852 425.872C187.852 425.209 188.116 424.574 188.584 424.105C189.053 423.636 189.689 423.372 190.352 423.372C191.015 423.372 191.651 423.636 192.12 424.105C192.589 424.574 192.852 425.209 192.852 425.872C192.852 426.535 192.589 427.171 192.12 427.64C191.651 428.109 191.015 428.372 190.352 428.372Z" stroke="white" stroke-opacity="0.8" stroke-width="1.25"/>
<path opacity="0.5" d="M191.602 421.704C191.603 420.758 191.403 419.823 191.013 418.961C190.624 418.099 190.056 417.329 189.346 416.704M178.269 421.704C178.268 420.758 178.468 419.823 178.858 418.961C179.247 418.099 179.815 417.329 180.526 416.704M183.269 428.161C183.813 428.301 184.373 428.372 184.936 428.371C185.498 428.372 186.058 428.301 186.602 428.161" stroke="white" stroke-opacity="0.8" stroke-width="1.25" stroke-linecap="round"/>
<rect x="66.3543" y="300.925" width="31.294" height="31.294" rx="15.647" fill="white" fill-opacity="0.08"/>
<rect x="66.3543" y="300.925" width="31.294" height="31.294" rx="15.647" stroke="url(#paint8_linear_15_241)" stroke-width="0.802409"/>
<path d="M87.8353 323.862C88.0563 323.862 88.2683 323.774 88.4246 323.618C88.5808 323.462 88.6686 323.25 88.6686 323.029V321.99C88.672 319.652 85.357 317.82 82.002 317.82C78.647 317.82 75.3353 319.652 75.3353 321.99V323.029C75.3353 323.25 75.4231 323.462 75.5794 323.618C75.7357 323.774 75.9476 323.862 76.1686 323.862H87.8353ZM85.0053 312.282C85.0053 312.676 84.9276 313.067 84.7767 313.431C84.6258 313.796 84.4045 314.127 84.1256 314.406C83.8468 314.685 83.5157 314.906 83.1513 315.057C82.7869 315.208 82.3964 315.285 82.002 315.285C81.6076 315.285 81.217 315.208 80.8526 315.057C80.4883 314.906 80.1572 314.685 79.8783 314.406C79.5994 314.127 79.3782 313.796 79.2272 313.431C79.0763 313.067 78.9986 312.676 78.9986 312.282C78.9986 311.485 79.3151 310.722 79.8783 310.158C80.4415 309.595 81.2054 309.279 82.002 309.279C82.7985 309.279 83.5624 309.595 84.1256 310.158C84.6889 310.722 85.0053 311.485 85.0053 312.282Z" stroke="white" stroke-opacity="0.8" stroke-width="1.25" stroke-linecap="round" stroke-linejoin="round"/>
<rect opacity="0.6" x="261.193" y="133.366" width="68.0485" height="68.0485" rx="34.0242" transform="rotate(-135 261.193 133.366)" fill="#D9D9D9" fill-opacity="0.03" stroke="url(#paint9_linear_15_241)" stroke-width="0.2"/>
<rect opacity="0.6" x="357.711" y="104.179" width="68.0485" height="68.0485" rx="34.0242" transform="rotate(-135 357.711 104.179)" fill="#D9D9D9" fill-opacity="0.03" stroke="url(#paint10_linear_15_241)" stroke-width="0.2"/>
<rect opacity="0.6" x="283.973" y="33.5265" width="27.6881" height="27.6881" rx="13.8441" transform="rotate(-135 283.973 33.5265)" fill="#D9D9D9" fill-opacity="0.03" stroke="url(#paint11_linear_15_241)" stroke-width="0.2"/>
<defs>
<linearGradient id="paint0_linear_15_241" x1="360.272" y1="73.4166" x2="360.272" y2="424.108" gradientUnits="userSpaceOnUse">
<stop stop-color="#465D98"/>
<stop offset="1" stop-color="#88A2E4"/>
</linearGradient>
<linearGradient id="paint1_linear_15_241" x1="330.385" y1="115.682" x2="330.385" y2="406.6" gradientUnits="userSpaceOnUse">
<stop stop-color="#465D98"/>
<stop offset="1" stop-color="#88A2E4"/>
</linearGradient>
<linearGradient id="paint2_linear_15_241" x1="299.482" y1="159.386" x2="299.482" y2="388.496" gradientUnits="userSpaceOnUse">
<stop stop-color="#465D98"/>
<stop offset="1" stop-color="#88A2E4"/>
</linearGradient>
<linearGradient id="paint3_linear_15_241" x1="248.387" y1="226.824" x2="248.387" y2="353.744" gradientUnits="userSpaceOnUse">
<stop stop-color="#465D98"/>
<stop offset="1" stop-color="#88A2E4"/>
</linearGradient>
<linearGradient id="paint4_linear_15_241" x1="184.935" y1="290.894" x2="184.935" y2="342.228" gradientUnits="userSpaceOnUse">
<stop stop-color="#494CEB"/>
<stop offset="1" stop-color="#8788CB"/>
</linearGradient>
<linearGradient id="paint5_linear_15_241" x1="184.927" y1="197.828" x2="184.927" y2="229.925" gradientUnits="userSpaceOnUse">
<stop stop-color="#494CEB"/>
<stop offset="1" stop-color="#8788CB"/>
</linearGradient>
<linearGradient id="paint6_linear_15_241" x1="289.001" y1="300.515" x2="289.001" y2="332.612" gradientUnits="userSpaceOnUse">
<stop stop-color="#494CEB"/>
<stop offset="1" stop-color="#8788CB"/>
</linearGradient>
<linearGradient id="paint7_linear_15_241" x1="184.935" y1="404.824" x2="184.935" y2="436.921" gradientUnits="userSpaceOnUse">
<stop stop-color="#494CEB"/>
<stop offset="1" stop-color="#8788CB"/>
</linearGradient>
<linearGradient id="paint8_linear_15_241" x1="82.0013" y1="300.523" x2="82.0013" y2="332.62" gradientUnits="userSpaceOnUse">
<stop stop-color="#494CEB"/>
<stop offset="1" stop-color="#8788CB"/>
</linearGradient>
<linearGradient id="paint9_linear_15_241" x1="295.318" y1="133.508" x2="295.318" y2="201.757" gradientUnits="userSpaceOnUse">
<stop stop-color="#465D98"/>
<stop offset="1" stop-color="#88A2E4"/>
</linearGradient>
<linearGradient id="paint10_linear_15_241" x1="391.835" y1="104.32" x2="391.835" y2="172.569" gradientUnits="userSpaceOnUse">
<stop stop-color="#465D98"/>
<stop offset="1" stop-color="#88A2E4"/>
</linearGradient>
<linearGradient id="paint11_linear_15_241" x1="297.917" y1="33.6679" x2="297.917" y2="61.5562" gradientUnits="userSpaceOnUse">
<stop stop-color="#465D98"/>
<stop offset="1" stop-color="#88A2E4"/>
</linearGradient>
</defs>
</svg>
