<svg width="390" height="403" viewBox="0 0 390 403" fill="none" xmlns="http://www.w3.org/2000/svg">
<rect x="63.5" y="160.75" width="57.6152" height="56.6484" rx="4" fill="#D9D9D9" fill-opacity="0.02"/>
<rect x="-4.11523" y="160.75" width="57.6152" height="56.6484" rx="4" fill="#D9D9D9" fill-opacity="0.02"/>
<rect x="131.115" y="160.75" width="57.6152" height="56.6484" rx="4" fill="#D9D9D9" fill-opacity="0.02"/>
<rect x="198.73" y="160.75" width="57.6152" height="56.6484" rx="4" fill="#D9D9D9" fill-opacity="0.02"/>
<rect x="266.346" y="160.75" width="57.6152" height="56.6484" rx="4" fill="#D9D9D9" fill-opacity="0.02"/>
<rect x="333.961" y="160.75" width="57.6152" height="56.6484" rx="4" fill="#D9D9D9" fill-opacity="0.02"/>
<rect x="63.5" y="227.398" width="57.6152" height="60.5677" rx="4" fill="#D9D9D9" fill-opacity="0.02"/>
<rect x="-4.11523" y="227.398" width="57.6152" height="60.5677" rx="4" fill="#D9D9D9" fill-opacity="0.02"/>
<rect x="131.115" y="227.398" width="57.6152" height="60.5677" rx="4" fill="#D9D9D9" fill-opacity="0.02"/>
<rect x="198.73" y="227.398" width="57.6152" height="60.5677" rx="4" fill="#D9D9D9" fill-opacity="0.02"/>
<rect x="266.346" y="227.398" width="57.6152" height="60.5677" rx="4" fill="#D9D9D9" fill-opacity="0.02"/>
<rect x="333.961" y="227.398" width="57.6152" height="60.5677" rx="4" fill="#D9D9D9" fill-opacity="0.02"/>
<rect x="63.5" y="297.965" width="57.6152" height="60.5677" rx="4" fill="#D9D9D9" fill-opacity="0.02"/>
<rect x="-4.11523" y="297.965" width="57.6152" height="60.5677" rx="4" fill="#D9D9D9" fill-opacity="0.02"/>
<rect x="131.115" y="297.965" width="57.6152" height="60.5677" rx="4" fill="#D9D9D9" fill-opacity="0.02"/>
<rect x="198.73" y="297.965" width="57.6152" height="60.5677" rx="4" fill="#D9D9D9" fill-opacity="0.02"/>
<rect x="266.346" y="297.965" width="57.6152" height="60.5677" rx="4" fill="#D9D9D9" fill-opacity="0.02"/>
<rect x="333.961" y="297.965" width="57.6152" height="60.5677" rx="4" fill="#D9D9D9" fill-opacity="0.02"/>
<path d="M48.7089 69.4094L-18.0096 75.8806H-20V246.164C-17.6773 257.653 -4.31116 264 1.37042 264H371.792C386.777 262.091 392.615 247.407 391.949 245.836V-28L354.169 -11.311L281.421 -4.49912L189.381 36.0314L125.074 32.2848L48.7089 69.4094Z" fill="url(#paint0_linear_35_16)" fill-opacity="0.08"/>
<path d="M256.346 252.09C236.529 252.09 220.465 268.154 220.465 287.971C220.465 307.787 236.529 323.851 256.346 323.851C276.162 323.851 292.226 307.787 292.226 287.971C292.226 268.154 276.162 252.09 256.346 252.09ZM259.444 307.424V312.478H254.61V307.481C246.678 306.395 243.205 299.877 243.205 299.877L248.142 295.747C248.142 295.747 251.295 301.235 256.997 301.235C260.148 301.235 262.537 299.549 262.537 296.668C262.537 289.933 244.392 290.75 244.392 278.256C244.392 272.825 248.688 268.912 254.608 267.986V262.938H259.441V267.986C263.569 268.529 268.457 270.702 268.457 275.375V278.96H262.048V277.222C262.048 275.429 259.765 274.235 257.21 274.235C253.951 274.235 251.564 275.864 251.564 278.145C251.564 285.043 269.709 283.359 269.709 296.451C269.709 301.833 265.69 306.499 259.444 307.424Z" fill="url(#paint1_linear_35_16)"/>
<g clip-path="url(#clip0_35_16)">
<path d="M46.9861 270.089L68.9911 275.985L63.0948 297.99" stroke="url(#paint2_linear_35_16)" stroke-width="4" stroke-linecap="round" stroke-linejoin="round"/>
<path d="M68.9909 275.986L29.5804 298.74C28.9312 299.106 28.1643 299.203 27.4443 299.01C26.7243 298.817 26.1087 298.35 25.7295 297.708L16.467 281.665C16.0879 281.023 15.4722 280.555 14.7522 280.362C14.0323 280.169 13.2653 280.267 12.6161 280.633L-12.8438 295.332" stroke="url(#paint3_linear_35_16)" stroke-opacity="0.35" stroke-width="4" stroke-linecap="round" stroke-linejoin="round"/>
</g>
<g clip-path="url(#clip1_35_16)">
<path d="M343.986 153.089L365.991 158.985L360.095 180.99" stroke="url(#paint4_linear_35_16)" stroke-width="4" stroke-linecap="round" stroke-linejoin="round"/>
<path d="M365.991 158.986L326.58 181.74C325.931 182.106 325.164 182.203 324.444 182.01C323.724 181.817 323.109 181.35 322.73 180.708L313.467 164.665C313.088 164.023 312.472 163.555 311.752 163.362C311.032 163.169 310.265 163.267 309.616 163.633L284.156 178.332" stroke="url(#paint5_linear_35_16)" stroke-opacity="0.35" stroke-width="4" stroke-linecap="round" stroke-linejoin="round"/>
</g>
<g clip-path="url(#clip2_35_16)">
<path d="M176.986 188.089L198.991 193.985L193.095 215.99" stroke="url(#paint6_linear_35_16)" stroke-width="4" stroke-linecap="round" stroke-linejoin="round"/>
<path d="M198.991 193.986L159.58 216.74C158.931 217.106 158.164 217.203 157.444 217.01C156.724 216.817 156.109 216.35 155.73 215.708L146.467 199.665C146.088 199.023 145.472 198.555 144.752 198.362C144.032 198.169 143.265 198.267 142.616 198.633L117.156 213.332" stroke="url(#paint7_linear_35_16)" stroke-opacity="0.35" stroke-width="4" stroke-linecap="round" stroke-linejoin="round"/>
</g>
<g clip-path="url(#clip3_35_16)">
<path d="M175.986 316.089L197.991 321.985L192.095 343.99" stroke="url(#paint8_linear_35_16)" stroke-width="4" stroke-linecap="round" stroke-linejoin="round"/>
<path d="M197.991 321.986L158.58 344.74C157.931 345.106 157.164 345.203 156.444 345.01C155.724 344.817 155.109 344.35 154.73 343.708L145.467 327.665C145.088 327.023 144.472 326.555 143.752 326.362C143.032 326.169 142.265 326.267 141.616 326.633L116.156 341.332" stroke="url(#paint9_linear_35_16)" stroke-opacity="0.35" stroke-width="4" stroke-linecap="round" stroke-linejoin="round"/>
</g>
<g clip-path="url(#clip4_35_16)">
<path d="M321.986 353.089L343.991 358.985L338.095 380.99" stroke="url(#paint10_linear_35_16)" stroke-width="4" stroke-linecap="round" stroke-linejoin="round"/>
<path d="M343.991 358.986L304.58 381.74C303.931 382.106 303.164 382.203 302.444 382.01C301.724 381.817 301.109 381.35 300.73 380.708L291.467 364.665C291.088 364.023 290.472 363.555 289.752 363.362C289.032 363.169 288.265 363.267 287.616 363.633L262.156 378.332" stroke="url(#paint11_linear_35_16)" stroke-opacity="0.35" stroke-width="4" stroke-linecap="round" stroke-linejoin="round"/>
</g>
<g clip-path="url(#clip5_35_16)">
<path d="M390.986 255.089L412.991 260.985L407.095 282.99" stroke="url(#paint12_linear_35_16)" stroke-width="4" stroke-linecap="round" stroke-linejoin="round"/>
<path d="M412.991 260.986L373.58 283.74C372.931 284.106 372.164 284.203 371.444 284.01C370.724 283.817 370.109 283.35 369.73 282.708L360.467 266.665C360.088 266.023 359.472 265.555 358.752 265.362C358.032 265.169 357.265 265.267 356.616 265.633L331.156 280.332" stroke="url(#paint13_linear_35_16)" stroke-opacity="0.35" stroke-width="4" stroke-linecap="round" stroke-linejoin="round"/>
</g>
<defs>
<linearGradient id="paint0_linear_35_16" x1="186" y1="32.4293" x2="205.271" y2="99.2473" gradientUnits="userSpaceOnUse">
<stop stop-color="#255DC9"/>
<stop offset="1" stop-color="#4B5F7E" stop-opacity="0"/>
</linearGradient>
<linearGradient id="paint1_linear_35_16" x1="256.346" y1="252.09" x2="256.346" y2="323.852" gradientUnits="userSpaceOnUse">
<stop stop-color="#465D98"/>
<stop offset="1" stop-color="#88A2E4"/>
</linearGradient>
<linearGradient id="paint2_linear_35_16" x1="52.0923" y1="295.042" x2="57.9886" y2="273.037" gradientUnits="userSpaceOnUse">
<stop stop-color="#465D98"/>
<stop offset="1" stop-color="#88A2E4"/>
</linearGradient>
<linearGradient id="paint3_linear_35_16" x1="22.9144" y1="304.914" x2="33.2328" y2="266.404" gradientUnits="userSpaceOnUse">
<stop stop-color="#465D98"/>
<stop offset="1" stop-color="#88A2E4"/>
</linearGradient>
<linearGradient id="paint4_linear_35_16" x1="349.092" y1="178.042" x2="354.989" y2="156.037" gradientUnits="userSpaceOnUse">
<stop stop-color="#465D98"/>
<stop offset="1" stop-color="#88A2E4"/>
</linearGradient>
<linearGradient id="paint5_linear_35_16" x1="319.914" y1="187.914" x2="330.233" y2="149.404" gradientUnits="userSpaceOnUse">
<stop stop-color="#465D98"/>
<stop offset="1" stop-color="#88A2E4"/>
</linearGradient>
<linearGradient id="paint6_linear_35_16" x1="182.092" y1="213.042" x2="187.989" y2="191.037" gradientUnits="userSpaceOnUse">
<stop stop-color="#465D98"/>
<stop offset="1" stop-color="#88A2E4"/>
</linearGradient>
<linearGradient id="paint7_linear_35_16" x1="152.914" y1="222.914" x2="163.233" y2="184.404" gradientUnits="userSpaceOnUse">
<stop stop-color="#465D98"/>
<stop offset="1" stop-color="#88A2E4"/>
</linearGradient>
<linearGradient id="paint8_linear_35_16" x1="181.092" y1="341.042" x2="186.989" y2="319.037" gradientUnits="userSpaceOnUse">
<stop stop-color="#465D98"/>
<stop offset="1" stop-color="#88A2E4"/>
</linearGradient>
<linearGradient id="paint9_linear_35_16" x1="151.914" y1="350.914" x2="162.233" y2="312.404" gradientUnits="userSpaceOnUse">
<stop stop-color="#465D98"/>
<stop offset="1" stop-color="#88A2E4"/>
</linearGradient>
<linearGradient id="paint10_linear_35_16" x1="327.092" y1="378.042" x2="332.989" y2="356.037" gradientUnits="userSpaceOnUse">
<stop stop-color="#465D98"/>
<stop offset="1" stop-color="#88A2E4"/>
</linearGradient>
<linearGradient id="paint11_linear_35_16" x1="297.914" y1="387.914" x2="308.233" y2="349.404" gradientUnits="userSpaceOnUse">
<stop stop-color="#465D98"/>
<stop offset="1" stop-color="#88A2E4"/>
</linearGradient>
<linearGradient id="paint12_linear_35_16" x1="396.092" y1="280.042" x2="401.989" y2="258.037" gradientUnits="userSpaceOnUse">
<stop stop-color="#465D98"/>
<stop offset="1" stop-color="#88A2E4"/>
</linearGradient>
<linearGradient id="paint13_linear_35_16" x1="366.914" y1="289.914" x2="377.233" y2="251.404" gradientUnits="userSpaceOnUse">
<stop stop-color="#465D98"/>
<stop offset="1" stop-color="#88A2E4"/>
</linearGradient>
<clipPath id="clip0_35_16">
<rect width="79.7344" height="79.7344" fill="white" transform="matrix(0.965926 0.258819 0.258819 -0.965926 -20.7539 313.852)"/>
</clipPath>
<clipPath id="clip1_35_16">
<rect width="79.7344" height="79.7344" fill="white" transform="matrix(0.965926 0.258819 0.258819 -0.965926 276.246 196.852)"/>
</clipPath>
<clipPath id="clip2_35_16">
<rect width="79.7344" height="79.7344" fill="white" transform="matrix(0.965926 0.258819 0.258819 -0.965926 109.246 231.852)"/>
</clipPath>
<clipPath id="clip3_35_16">
<rect width="79.7344" height="79.7344" fill="white" transform="matrix(0.965926 0.258819 0.258819 -0.965926 108.246 359.852)"/>
</clipPath>
<clipPath id="clip4_35_16">
<rect width="79.7344" height="79.7344" fill="white" transform="matrix(0.965926 0.258819 0.258819 -0.965926 254.246 396.852)"/>
</clipPath>
<clipPath id="clip5_35_16">
<rect width="79.7344" height="79.7344" fill="white" transform="matrix(0.965926 0.258819 0.258819 -0.965926 323.246 298.852)"/>
</clipPath>
</defs>
</svg>
